<svg width="29" height="27" viewBox="0 0 29 27" fill="none" xmlns="http://www.w3.org/2000/svg">
<path d="M27.834 11.04C27.9175 11.2781 28 11.7522 28 12.6035C28 19.9952 21.9626 26 14.5 26C7.03736 26 1 19.9952 1 12.6035C1.00003 11.7526 1.08152 11.2782 1.16504 11.04C1.30953 11.0951 1.54897 11.2161 1.90625 11.4639C2.38366 11.7949 2.94322 12.2549 3.60352 12.8096C4.89645 13.8958 6.51969 15.3005 8.3291 16.4219C10.1397 17.544 12.2343 18.4463 14.5 18.4463C16.7657 18.4463 18.8603 17.544 20.6709 16.4219C22.4803 15.3005 24.1036 13.8958 25.3965 12.8096C26.0568 12.2549 26.6163 11.7949 27.0938 11.4639C27.4503 11.2166 27.6894 11.0952 27.834 11.04Z" stroke="url(#paint0_linear_440_2496)" stroke-width="2"/>
<path d="M14.6172 1.81954C14.4948 3.42597 14.2298 6.42929 16.2732 8.8884C19.4499 12.7113 18.926 18.3857 15.1032 21.5624C15.0891 21.5742 15.0743 21.5852 15.0605 21.5966C15.2851 19.9569 15.46 17.2978 13.5759 15.0304C10.343 11.1399 10.5335 5.20664 14.2919 2.08353C14.4097 1.98567 14.518 1.89808 14.6172 1.81954Z" stroke="url(#paint1_linear_440_2496)" stroke-width="2"/>
<defs>
<linearGradient id="paint0_linear_440_2496" x1="14.5" y1="10" x2="14.5" y2="27" gradientUnits="userSpaceOnUse">
<stop stop-color="#008F1E"/>
<stop offset="1" stop-color="#81FF9B"/>
</linearGradient>
<linearGradient id="paint1_linear_440_2496" x1="9.1173" y1="5.08327" x2="20.3017" y2="18.5428" gradientUnits="userSpaceOnUse">
<stop stop-color="#A6FF3A"/>
<stop offset="1" stop-color="#649923"/>
</linearGradient>
</defs>
</svg>
