<svg width="157" height="146" viewBox="0 0 157 146" fill="none" xmlns="http://www.w3.org/2000/svg">
<path d="M150.357 54.9568C151.176 54.8661 151.827 54.9957 152.364 55.3171C152.91 55.6432 153.437 56.2252 153.898 57.2078C154.841 59.2136 155.393 62.6369 155.393 67.9714C155.392 110.289 120.837 144.607 78.1963 144.607C35.5553 144.607 1.00015 110.289 1 67.9714C1 62.6369 1.55172 59.2136 2.49414 57.2078C2.95585 56.2252 3.48294 55.6432 4.02832 55.3171C4.56596 54.9957 5.21635 54.8661 6.03516 54.9568C7.74326 55.1461 9.98427 56.2705 12.7852 58.2126C15.5519 60.1311 18.7179 62.7391 22.2598 65.7146C29.3161 71.6426 37.8025 78.9808 47.2324 84.825C56.6635 90.6698 67.1361 95.0847 78.1963 95.0847C89.2565 95.0847 99.7291 90.6698 109.16 84.825C118.59 78.9808 127.076 71.6426 134.133 65.7146C137.675 62.7391 140.841 60.1311 143.607 58.2126C146.408 56.2705 148.649 55.1461 150.357 54.9568Z" stroke="url(#paint0_linear_245_10940)" stroke-width="2"/>
<path d="M82.9345 2.52519C82.9948 2.5634 83.1179 2.67611 83.2335 3.02713C83.35 3.38069 83.4277 3.88427 83.4592 4.56389C83.5223 5.92694 83.3908 7.74652 83.2209 9.98425C82.5514 18.8048 81.3278 33.3229 91.1366 45.1271C109.819 67.6094 106.738 100.98 84.2563 119.662C81.397 122.038 79.3503 123.575 77.9076 124.432C77.1827 124.863 76.6657 125.088 76.3117 125.178C76.1223 125.226 76.0216 125.224 75.9778 125.219C75.9572 125.185 75.92 125.105 75.8861 124.943C75.8213 124.632 75.8006 124.171 75.8374 123.525C75.9108 122.234 76.1907 120.501 76.5167 118.346C77.7995 109.862 79.6627 95.6941 69.8332 83.865C51.0949 61.315 51.8483 26.4866 74.2662 7.85799C77.1208 5.48591 79.194 3.98083 80.6857 3.16986C81.4326 2.76387 81.9787 2.56329 82.366 2.49351C82.7403 2.4261 82.8841 2.49334 82.9345 2.52519Z" stroke="url(#paint1_linear_245_10940)" stroke-width="2"/>
<defs>
<linearGradient id="paint0_linear_245_10940" x1="78.1963" y1="53.9285" x2="78.1963" y2="145.607" gradientUnits="userSpaceOnUse">
<stop stop-color="#008F1E"/>
<stop offset="1" stop-color="#81FF9B"/>
</linearGradient>
<linearGradient id="paint1_linear_245_10940" x1="49.1683" y1="27.4133" x2="109.484" y2="99.9985" gradientUnits="userSpaceOnUse">
<stop stop-color="#A6FF3A"/>
<stop offset="1" stop-color="#649923"/>
</linearGradient>
</defs>
</svg>
